<svg width="40" height="40" viewBox="0 0 40 40" fill="none" xmlns="http://www.w3.org/2000/svg">
<rect width="40" height="40" fill="white"/>
<path d="M14 10.5C14 12.433 12.433 14 10.5 14C8.567 14 7 12.433 7 10.5C7 8.567 8.567 7 10.5 7C12.433 7 14 8.567 14 10.5Z" fill="black"/>
<path d="M33 10.5C33 12.433 31.433 14 29.5 14C27.567 14 26 12.433 26 10.5C26 8.567 27.567 7 29.5 7C31.433 7 33 8.567 33 10.5Z" fill="black"/>
<circle cx="10.5" cy="29.5" r="3.5" fill="black"/>
<circle cx="29.5" cy="30.5" r="3.5" fill="black"/>
</svg>
